<svg version="1.1" xmlns="http://www.w3.org/2000/svg" x="0px" y="0px" viewBox="0 0 660 101.5">
	<style type="text/css">
		#roof polygon,
		#home path {
				fill:#f6901e;
			}
		#house path,
		#advisor path {
				fill:#5c6f79;
			}
	</style>
	<g id="advisor">
		<path d="M436.2,76.9l-6-16.8h-28.3l-6,16.8h-7.6L412,13.3h8.6l23.9,63.6H436.2z M416,20.5l-12.1,33.3H428L416,20.5z"
			/>
		<path d="M479.7,76.9l-1.1-7.3c-0.2,0.3-4.4,8.2-15.6,8.2c-12,0-19.6-10.2-19.6-23.9s8.5-23.8,20.5-23.8
			c10.3,0,14.2,7.6,14.7,8.7V11.4h7.3V77L479.7,76.9z M465.2,36c-8.6,0-14.2,8.1-14.2,17.9s5.2,17.9,13.7,17.9s14.2-8.1,14.2-17.9
			S473.7,36,465.2,36z"/>
		<path d="M515.2,76.9h-7.7l-17.6-45.8h7.8l13.7,38.6l13.7-38.6h7.7L515.2,76.9z"/>
		<path d="M541,20.9c-2.8,0-5.1-2.4-5.1-5.2c0-2.8,2.4-5.1,5.2-5.1s5.1,2.3,5.1,5.1C546.2,18.5,543.9,20.9,541,20.9
			L541,20.9z M537.3,76.9V31h7.3v45.8L537.3,76.9z"/>
		<path d="M579.4,73.6c-2.7,2.4-6.9,4.2-12.9,4.2c-6.8-0.1-13.2-3.1-17.6-8.2l4.3-4.5c2.4,2.7,7.6,6.7,13.5,6.7
			s9.8-2.4,9.8-6.9s-4.7-6.1-7.3-7.1s-6.7-2.1-8.9-3.1s-9.1-3.7-9.1-11.6s6.8-13.2,16.3-13.2c5.8-0.1,11.4,2.1,15.6,6.1l-3.4,5
			c-3.3-3.2-7.6-5.1-12.2-5.3c-5.2,0-9.4,2.1-9.4,6.5s4.4,5.9,7.5,7s6.4,2.1,8.6,3s9.4,3.9,9.4,11.7
			C583.7,67.7,582.1,71.2,579.4,73.6z"/>
		<path d="M608,77.8c-12.9,0-21.7-9.4-21.7-23.8s8.8-23.9,21.7-23.9s21.7,9.4,21.7,23.9S621.1,77.8,608,77.8z M608,36
			c-9,0-14.1,7.4-14.1,18S599,71.9,608,71.9s14.1-7.3,14.1-17.9S617.1,36,608,36z"/>
		<path d="M658.9,37.8c-1-0.4-2.1-0.6-3.2-0.6c-2.5-0.1-4.9,0.7-6.8,2.2c-3.6,2.7-5.9,6.6-6.6,11v26.5H635V31.1h6.7
			l0.6,9.2c2.4-5.3,7.7-10.2,14.1-10.2c1.2,0,2.4,0.1,3.6,0.5L658.9,37.8z"/>
	</g>
	<g id="home">
		<path d="M179.2,76.8V49.5H155v27.3h-16.3V11.3H155v25.1h24.2V11.3h16.3v65.5H179.2z"/>
		<path d="M226.2,77.8c-15.6,0-26-9.6-26-25.6s10.4-25.5,25.9-25.5s26,9.5,26,25.5S241.7,77.8,226.2,77.8z M226.2,38.5
			c-6.7,0-9.8,6.2-9.8,13.7s3,13.8,9.7,13.8s9.8-6.2,9.8-13.8S232.9,38.5,226.2,38.5L226.2,38.5z"/>
		<path d="M316.8,76.8V48.7c0-5.2-1.3-8.8-6.4-8.8s-7.4,5.3-8,8.5v28.4h-15.9V48.7c0-5.2-1.3-8.8-6.4-8.8
			s-7.4,5.3-8,8.5v28.4h-15.9v-49h15l0.9,7.5c3.4-5.3,7.8-8.6,14.5-8.6s11.9,2.9,14.1,9.1c3.9-5.4,8.6-9.1,16-9.1
			c10.1,0,15.9,6.4,15.9,18.5v31.6L316.8,76.8z"/>
		<path d="M353.1,56.2c0.3,7.2,5.9,10.1,12.1,10.1s12.2-2.9,14.1-4.5l5.2,9.2c0,0-6.7,6.9-21.6,6.9s-25.7-9.1-25.7-25.5
			s10.9-25.6,25.6-25.6s23,10.3,23,25.3v4.1L353.1,56.2z M362.2,37.2c-6,0-8.9,4.5-9.4,9.4h18.1C370.9,41.5,368.1,37.2,362.2,37.2
			L362.2,37.2z"/>
	</g>
	<g id="house">
		<path d="M82.2,49.6l-2.1-2.1L48.6,16L21.3,43.3v26.5c0,3.9,3.2,7.1,7.1,7.1h32.2l24.6,24.6V76.9H99
			c3.9,0,7.1-3.2,7.1-7.1V49.6C106.1,49.6,82.2,49.6,82.2,49.6z"/>
	</g>
	<g id="roof">
		<polygon points="84.8,0 42.6,0 0,42.5 12.1,42.5 48.6,6 85.1,42.5 127.4,42.5 	"/>
	</g>
</svg>
